<?xml version="1.0" standalone="no"?>
<!DOCTYPE svg PUBLIC "-//W3C//DTD SVG 20010904//EN"
 "http://www.w3.org/TR/2001/REC-SVG-20010904/DTD/svg10.dtd">
<svg version="1.0" xmlns="http://www.w3.org/2000/svg"
 width="130.000000pt" height="130.000000pt" viewBox="0 0 130.000000 130.000000"
 preserveAspectRatio="xMidYMid meet">
<metadata>
Created by potrace 1.11, written by Peter Selinger 2001-2013
</metadata>
<g transform="translate(0.000000,130.000000) scale(0.100000,-0.100000)"
fill="#000000" stroke="none">
<path d="M140 1010 l0 -200 150 0 150 0 0 35 0 35 -110 0 -110 0 0 55 0 55
100 0 100 0 0 30 0 30 -100 0 -100 0 0 45 0 45 105 0 105 0 0 35 0 35 -145 0
-145 0 0 -200z"/>
<path d="M703 792 c-357 -726 -360 -732 -331 -732 8 0 160 305 458 917 85 173
105 223 93 227 -11 4 -64 -95 -220 -412z"/>
<path d="M956 540 c-38 -12 -85 -57 -102 -97 -23 -53 -18 -162 9 -214 68 -128
269 -117 311 17 5 17 2 23 -18 28 -13 3 -31 9 -40 12 -11 4 -16 1 -16 -10 0
-9 -11 -28 -25 -41 -32 -33 -84 -33 -122 -1 -24 21 -28 32 -31 93 -6 105 25
153 98 153 30 0 80 -37 80 -59 0 -8 67 4 78 14 9 8 -31 66 -58 85 -34 24 -118
35 -164 20z"/>
</g>
</svg>
